<svg width="170" height="170" viewBox="0 0 170 170" fill="none" xmlns="http://www.w3.org/2000/svg">
<rect width="170" height="170" fill="white"/>
<path d="M37.871 120.638C39.8043 120.638 41.4937 121.018 42.9393 121.777C44.3849 122.537 45.4996 123.608 46.2834 124.989C47.0845 126.353 47.4851 127.933 47.4851 129.728C47.4851 131.506 47.0845 133.086 46.2834 134.467C45.4996 135.849 44.3762 136.919 42.9132 137.679C41.4676 138.439 39.7868 138.818 37.871 138.818H31V120.638H37.871ZM37.5836 134.985C39.273 134.985 40.588 134.528 41.5285 133.613C42.4691 132.698 42.9393 131.403 42.9393 129.728C42.9393 128.053 42.4691 126.75 41.5285 125.818C40.588 124.885 39.273 124.419 37.5836 124.419H35.4674V134.985H37.5836Z" fill="#3851DD"/>
<path d="M56.3041 139C54.5798 139 52.9949 138.603 51.5493 137.808C50.1211 137.014 48.9803 135.909 48.1268 134.493C47.2908 133.06 46.8728 131.455 46.8728 129.676C46.8728 127.898 47.2908 126.301 48.1268 124.885C48.9803 123.469 50.1211 122.364 51.5493 121.57C52.9949 120.776 54.5798 120.379 56.3041 120.379C58.0284 120.379 59.6046 120.776 61.0328 121.57C62.4784 122.364 63.6105 123.469 64.4291 124.885C65.2651 126.301 65.6831 127.898 65.6831 129.676C65.6831 131.455 65.2651 133.06 64.4291 134.493C63.5931 135.909 62.461 137.014 61.0328 137.808C59.6046 138.603 58.0284 139 56.3041 139ZM56.3041 134.96C57.7671 134.96 58.934 134.476 59.8049 133.509C60.6932 132.542 61.1373 131.265 61.1373 129.676C61.1373 128.071 60.6932 126.793 59.8049 125.843C58.934 124.877 57.7671 124.393 56.3041 124.393C54.8236 124.393 53.6393 124.868 52.751 125.818C51.8802 126.767 51.4448 128.053 51.4448 129.676C51.4448 131.282 51.8802 132.568 52.751 133.535C53.6393 134.485 54.8236 134.96 56.3041 134.96Z" fill="#3851DD"/>
<path d="M72.453 139C71.1119 139 69.9102 138.784 68.8477 138.352C67.7853 137.921 66.9319 137.282 66.2875 136.436C65.6604 135.59 65.3295 134.571 65.2947 133.38H70.0495C70.1192 134.053 70.3543 134.571 70.7549 134.934C71.1555 135.279 71.678 135.452 72.3224 135.452C72.9843 135.452 73.5068 135.305 73.8899 135.011C74.2731 134.701 74.4647 134.278 74.4647 133.742C74.4647 133.293 74.308 132.922 73.9944 132.629C73.6984 132.335 73.3239 132.093 72.8711 131.904C72.4356 131.714 71.8086 131.498 70.99 131.256C69.8057 130.894 68.839 130.531 68.0901 130.168C67.3412 129.806 66.6968 129.271 66.1568 128.563C65.6169 127.855 65.3469 126.931 65.3469 125.792C65.3469 124.1 65.9652 122.779 67.2018 121.829C68.4384 120.862 70.0495 120.379 72.035 120.379C74.0554 120.379 75.6839 120.862 76.9205 121.829C78.1571 122.779 78.8189 124.108 78.906 125.818H74.0728C74.038 125.231 73.8203 124.773 73.4197 124.445C73.0191 124.1 72.5053 123.927 71.8783 123.927C71.3384 123.927 70.9029 124.074 70.572 124.367C70.2411 124.644 70.0756 125.049 70.0756 125.584C70.0756 126.171 70.3543 126.629 70.9117 126.957C71.469 127.285 72.3398 127.639 73.5242 128.019C74.7085 128.416 75.6665 128.796 76.398 129.158C77.1469 129.521 77.7913 130.048 78.3313 130.738C78.8712 131.429 79.1412 132.318 79.1412 133.406C79.1412 134.442 78.8712 135.383 78.3313 136.229C77.8088 137.075 77.0424 137.748 76.0322 138.249C75.022 138.749 73.829 139 72.453 139Z" fill="#3851DD"/>
<path d="M92.7325 120.638V124.186H87.8732V138.818H83.4057V124.186H78.5464V120.638H92.7325Z" fill="#3851DD"/>
<path d="M97.0907 124.186V127.863H103.073V131.282H97.0907V135.27H103.857V138.818H92.6233V120.638H103.857V124.186H97.0907Z" fill="#3851DD"/>
<path d="M113.08 139C111.356 139 109.771 138.603 108.325 137.808C106.897 137.014 105.756 135.909 104.903 134.493C104.067 133.06 103.649 131.455 103.649 129.676C103.649 127.898 104.067 126.301 104.903 124.885C105.756 123.469 106.897 122.364 108.325 121.57C109.771 120.776 111.356 120.379 113.08 120.379C114.804 120.379 116.38 120.776 117.809 121.57C119.254 122.364 120.386 123.469 121.205 124.885C122.041 126.301 122.459 127.898 122.459 129.676C122.459 131.455 122.041 133.06 121.205 134.493C120.369 135.909 119.237 137.014 117.809 137.808C116.38 138.603 114.804 139 113.08 139ZM113.08 134.96C114.543 134.96 115.71 134.476 116.581 133.509C117.469 132.542 117.913 131.265 117.913 129.676C117.913 128.071 117.469 126.793 116.581 125.843C115.71 124.877 114.543 124.393 113.08 124.393C111.599 124.393 110.415 124.868 109.527 125.818C108.656 126.767 108.221 128.053 108.221 129.676C108.221 131.282 108.656 132.568 109.527 133.535C110.415 134.485 111.599 134.96 113.08 134.96Z" fill="#3851DD"/>
<path d="M139 138.818H134.532L127.06 127.605V138.818H122.593V120.638H127.06L134.532 131.904V120.638H139V138.818Z" fill="#3851DD"/>
<path d="M63.8213 105.482C69.9059 105.482 75.9083 104.066 81.3506 101.345L82.9307 100.553C87.3332 98.3514 91.1627 95.1555 94.1162 91.2178C95.2574 89.6962 96.2597 88.0742 97.1104 86.373L99.1309 82.3398C99.6914 81.2186 100.169 80.0574 100.565 78.8682C101.541 75.9407 102.041 72.8739 102.041 69.7881V66.7129C102.041 63.6058 101.659 60.5104 100.905 57.4961C100.285 55.0133 99.3943 52.6045 98.25 50.3154L97.1104 48.04C96.2597 46.3388 95.2574 44.717 94.1162 43.1953L93.417 42.2578C90.925 38.9353 87.6923 36.2392 83.9775 34.3818C82.2318 33.509 80.3954 32.8308 78.502 32.3574L77.4512 32.0947C74.582 31.3774 71.635 31.0091 68.6777 31H44.1094V32.5469C44.1094 35.6328 44.6091 38.6994 45.585 41.627C45.9814 42.8161 46.459 43.9774 47.0195 45.0986L49.04 49.1309C49.8907 50.8322 50.8929 52.4548 52.0342 53.9766C54.9877 57.9142 58.8172 61.1092 63.2197 63.3105L64.7998 64.1025C70.2422 66.8237 76.2443 68.2412 82.3291 68.2412H102.041L44.1094 105.482H63.8213Z" fill="#3851DD"/>
<path d="M84.3135 105.482C90.3982 105.482 96.4005 104.066 101.843 101.345L103.423 100.553C107.825 98.3514 111.655 95.1555 114.608 91.2178C115.75 89.6961 116.752 88.0743 117.603 86.373L119.623 82.3398C120.184 81.2188 120.661 80.0582 121.058 78.8691C122.033 75.9417 122.532 72.8749 122.532 69.7891V66.7139C122.532 63.6066 122.15 60.5106 121.396 57.4961C120.776 55.0134 119.887 52.6044 118.742 50.3154L117.603 48.04C116.752 46.3388 115.75 44.717 114.608 43.1953L113.909 42.2578C111.417 38.9353 108.184 36.2392 104.47 34.3818C102.724 33.509 100.888 32.8308 98.9941 32.3574L97.9434 32.0947C95.0379 31.3684 92.0525 31 89.0576 31H64.6016V32.5469C64.6016 35.6327 65.1004 38.6995 66.0762 41.627C66.4726 42.8161 66.9502 43.9774 67.5107 45.0986L69.5312 49.1309C70.3819 50.8322 71.3841 52.4548 72.5254 53.9766C75.4788 57.9142 79.3085 61.1092 83.7109 63.3105L85.291 64.1025C90.7333 66.8237 96.7356 68.2411 102.82 68.2412H122.532L64.6016 105.482H84.3135Z" fill="#3851DD"/>
</svg>
